<svg xmlns="http://www.w3.org/2000/svg" width="560" height="320" viewBox="0 0 560 320" font-family="-apple-system,Segoe UI,Helvetica,Arial,sans-serif" font-size="12">
<rect width="560" height="320" fill="#ffffff"/>
<text x="280" y="26" text-anchor="middle" font-size="16" font-weight="600" fill="#1a1a1a">Spelling Bee Score Distribution</text>
<path d="M 165 178 L 165.0 60.0 A 118 118 0 0 1 200.9 65.6 Z" fill="#f59e0b"/>
<path d="M 165 178 L 200.9 65.6 A 118 118 0 0 1 271.9 128.0 Z" fill="#eab308"/>
<path d="M 165 178 L 271.9 128.0 A 118 118 0 0 1 67.1 243.9 Z" fill="#84cc16"/>
<path d="M 165 178 L 67.1 243.9 A 118 118 0 0 1 165.0 60.0 Z" fill="#16a34a"/>
<rect x="330" y="85" width="14" height="14" rx="2" fill="#f59e0b"/>
<text x="352" y="96" fill="#333">80-89: 3 (5%)</text>
<rect x="330" y="109" width="14" height="14" rx="2" fill="#eab308"/>
<text x="352" y="120" fill="#333">90-94: 8 (13%)</text>
<rect x="330" y="133" width="14" height="14" rx="2" fill="#84cc16"/>
<text x="352" y="144" fill="#333">95-99: 29 (48%)</text>
<rect x="330" y="157" width="14" height="14" rx="2" fill="#16a34a"/>
<text x="352" y="168" fill="#333">100: 21 (34%)</text>
</svg>