<svg xmlns="http://www.w3.org/2000/svg" width="560" height="320" viewBox="0 0 560 320" font-family="-apple-system,Segoe UI,Helvetica,Arial,sans-serif" font-size="12">
<rect width="560" height="320" fill="#ffffff"/>
<text x="280" y="26" text-anchor="middle" font-size="16" font-weight="600" fill="#1a1a1a">Spelling Bee Score Distribution</text>
<path d="M 165 178 L 165.0 60.0 A 118 118 0 0 1 264.6 114.8 Z" fill="#eab308"/>
<path d="M 165 178 L 264.6 114.8 A 118 118 0 0 1 121.6 287.7 Z" fill="#84cc16"/>
<path d="M 165 178 L 121.6 287.7 A 118 118 0 0 1 165.0 60.0 Z" fill="#16a34a"/>
<rect x="330" y="85" width="14" height="14" rx="2" fill="#eab308"/>
<text x="352" y="96" fill="#333">90-94: 4 (16%)</text>
<rect x="330" y="109" width="14" height="14" rx="2" fill="#84cc16"/>
<text x="352" y="120" fill="#333">95-99: 10 (40%)</text>
<rect x="330" y="133" width="14" height="14" rx="2" fill="#16a34a"/>
<text x="352" y="144" fill="#333">100: 11 (44%)</text>
</svg>